HIERARCHY
ROOT hip
{
  OFFSET 0 0 0
  CHANNELS 6 Xposition Yposition Zposition Zrotation Yrotation Xrotation
  JOINT abdomen
  {
    OFFSET 0 20.6881 -0.73152
    CHANNELS 3 Zrotation Xrotation Yrotation
    JOINT chest
    {
      OFFSET 0 11.7043 -0.48768
      CHANNELS 3 Zrotation Xrotation Yrotation
      JOINT neck
      {
        OFFSET 0 22.1894 -2.19456
        CHANNELS 3 Zrotation Xrotation Yrotation
        JOINT head
        {
          OFFSET -0.24384 7.07133 1.2192
          CHANNELS 3 Zrotation Xrotation Yrotation
          JOINT leftEye
          {
            OFFSET 4.14528 8.04674 8.04672
            CHANNELS 3 Zrotation Xrotation Yrotation
            End Site
            {
              OFFSET 1 0 0
            }
          }
          JOINT rightEye
          {
            OFFSET -3.6576 8.04674 8.04672
            CHANNELS 3 Zrotation Xrotation Yrotation
            End Site
            {
              OFFSET 1 0 0
            }
          }
        }
      }
      JOINT rCollar
      {
        OFFSET -2.68224 19.2634 -4.8768
        CHANNELS 3 Zrotation Xrotation Yrotation
        JOINT rShldr
        {
          OFFSET -8.77824 -1.95073 1.46304
          CHANNELS 3 Zrotation Xrotation Yrotation
          JOINT rForeArm
          {
            OFFSET -28.1742 -1.7115 0.48768
            CHANNELS 3 Zrotation Xrotation Yrotation
            JOINT rHand
            {
              OFFSET -22.5879 0.773209 7.07136
              CHANNELS 3 Zrotation Xrotation Yrotation
              JOINT rThumb1
              {
                OFFSET -1.2192 -0.487915 3.41376
                CHANNELS 3 Zrotation Xrotation Yrotation
                JOINT rThumb2
                {
                  OFFSET -3.37035 -0.52449 3.41376
                  CHANNELS 3 Zrotation Xrotation Yrotation
                  End Site
                  {
                    OFFSET -1.78271 -1.18214 1.43049
                  }
                }
              }
              JOINT rIndex1
              {
                OFFSET -7.75947 0.938293 5.60832
                CHANNELS 3 Zrotation Xrotation Yrotation
                JOINT rIndex2
                {
                  OFFSET -2.54057 -0.884171 1.56538
                  CHANNELS 3 Zrotation Xrotation Yrotation
                  End Site
                  {
                    OFFSET -1.62519 -0.234802 1.16502
                  }
                }
              }
              JOINT rMid1
              {
                OFFSET -8.24714 1.18213 3.41376
                CHANNELS 3 Zrotation Xrotation Yrotation
                JOINT rMid2
                {
                  OFFSET -3.10165 -0.590103 1.0647
                  CHANNELS 3 Zrotation Xrotation Yrotation
                  End Site
                  {
                    OFFSET -2.48547 -0.328903 0.83742
                  }
                }
              }
              JOINT rRing1
              {
                OFFSET -8.82822 0.546677 1.51678
                CHANNELS 3 Zrotation Xrotation Yrotation
                JOINT rRing2
                {
                  OFFSET -2.60934 -0.819778 -0.0198488
                  CHANNELS 3 Zrotation Xrotation Yrotation
                  End Site
                  {
                    OFFSET -2.33842 -0.294052 0.168128
                  }
                }
              }
              JOINT rPinky1
              {
                OFFSET -8.27202 -0.0477905 -0.4584
                CHANNELS 3 Zrotation Xrotation Yrotation
                JOINT rPinky2
                {
                  OFFSET -1.82734 -0.647385 -0.700984
                  CHANNELS 3 Zrotation Xrotation Yrotation
                  End Site
                  {
                    OFFSET -1.69225 -0.51767 -0.607171
                  }
                }
              }
            }
          }
        }
      }
      JOINT lCollar
      {
        OFFSET 2.68224 19.2634 -4.8768
        CHANNELS 3 Zrotation Xrotation Yrotation
        JOINT lShldr
        {
          OFFSET 8.77824 -1.95073 1.46304
          CHANNELS 3 Zrotation Xrotation Yrotation
          JOINT lForeArm
          {
            OFFSET 28.1742 -1.7115 0.48768
            CHANNELS 3 Zrotation Xrotation Yrotation
            JOINT lHand
            {
              OFFSET 22.5879 0.773209 7.07136
              CHANNELS 3 Zrotation Xrotation Yrotation
              JOINT lThumb1
              {
                OFFSET 1.2192 -0.487915 3.41376
                CHANNELS 3 Zrotation Xrotation Yrotation
                JOINT lThumb2
                {
                  OFFSET 3.37035 -0.52449 3.41376
                  CHANNELS 3 Zrotation Xrotation Yrotation
                  End Site
                  {
                    OFFSET 1.78271 -1.18214 1.43049
                  }
                }
              }
              JOINT lIndex1
              {
                OFFSET 7.75947 0.938293 5.60832
                CHANNELS 3 Zrotation Xrotation Yrotation
                JOINT lIndex2
                {
                  OFFSET 2.54057 -0.884171 1.56538
                  CHANNELS 3 Zrotation Xrotation Yrotation
                  End Site
                  {
                    OFFSET 1.62519 -0.234802 1.16502
                  }
                }
              }
              JOINT lMid1
              {
                OFFSET 8.24714 1.18213 3.41376
                CHANNELS 3 Zrotation Xrotation Yrotation
                JOINT lMid2
                {
                  OFFSET 3.10165 -0.590103 1.0647
                  CHANNELS 3 Zrotation Xrotation Yrotation
                  End Site
                  {
                    OFFSET 2.48547 -0.328903 0.83742
                  }
                }
              }
              JOINT lRing1
              {
                OFFSET 8.82822 0.546677 1.51678
                CHANNELS 3 Zrotation Xrotation Yrotation
                JOINT lRing2
                {
                  OFFSET 2.60934 -0.819778 -0.0198488
                  CHANNELS 3 Zrotation Xrotation Yrotation
                  End Site
                  {
                    OFFSET 2.33842 -0.294052 0.168128
                  }
                }
              }
              JOINT lPinky1
              {
                OFFSET 8.27202 -0.0477905 -0.4584
                CHANNELS 3 Zrotation Xrotation Yrotation
                JOINT lPinky2
                {
                  OFFSET 1.82734 -0.647385 -0.700984
                  CHANNELS 3 Zrotation Xrotation Yrotation
                  End Site
                  {
                    OFFSET 1.69225 -0.51767 -0.607171
                  }
                }
              }
            }
          }
        }
      }
    }
  }
  JOINT rButtock
  {
    OFFSET -8.77824 4.35084 1.2192
    CHANNELS 3 Zrotation Xrotation Yrotation
    JOINT rThigh
    {
      OFFSET 0 -1.70687 -2.19456
      CHANNELS 3 Zrotation Xrotation Yrotation
      JOINT rShin
      {
        OFFSET 0 -36.8199 0.73152
        CHANNELS 3 Zrotation Xrotation Yrotation
        JOINT rFoot
        {
          OFFSET 0.73152 -45.1104 -5.12064
          CHANNELS 3 Zrotation Xrotation Yrotation
          End Site
          {
            OFFSET -1.1221 -3.69964 12.103
          }
        }
      }
    }
  }
  JOINT lButtock
  {
    OFFSET 8.77824 4.35084 1.2192
    CHANNELS 3 Zrotation Xrotation Yrotation
    JOINT lThigh
    {
      OFFSET 0 -1.70687 -2.19456
      CHANNELS 3 Zrotation Xrotation Yrotation
      JOINT lShin
      {
        OFFSET 0 -36.8199 0.73152
        CHANNELS 3 Zrotation Xrotation Yrotation
        JOINT lFoot
        {
          OFFSET -0.73152 -45.1104 -5.12064
          CHANNELS 3 Zrotation Xrotation Yrotation
          End Site
          {
            OFFSET 1.1221 -3.69964 12.103
          }
        }
      }
    }
  }
}
MOTION
Frames:	8
Frame Time:	0.00833333
-185.296 84.0179 -10.382 0.0 0.0 0.0 -1.65551 -0.00357567 -0.0452723 -0.4571 0.000154959 -0.0791638 2.97185e-14 -7.95139e-16 -1.2424e-16 8.89592e-14 3.18055e-15 -3.26131e-16 -0.0 0.0 0.0 -0.0 0.0 0.0 1.4809e-14 5.86259e-17 1.98785e-16 3.12525e-13 1.69588e-15 3.97569e-16 5.35879e-12 -1.55847e-12 -7.31528e-14 6.13465e-11 1.84132e-12 -9.85972e-14 1.44704e-10 6.05073e-13 -3.84847e-13 2.49885e-10 1.04322e-12 -6.75073e-13 1.44707e-10 6.0351e-13 -4.0075e-13 7.73091 5.47488 0.417314 1.44702e-10 6.04604e-13 -3.84847e-13 2.90554 0.965183 0.102902 1.44706e-10 6.04504e-13 -3.84052e-13 10.2786 0.731801 0.0259123 1.44696e-10 6.09076e-13 -3.75305e-13 2.22167 -0.733487 -0.20892 1.46122e-14 5.62964e-17 -2.48481e-16 3.09446e-13 8.94531e-16 -5.96354e-16 5.36187e-12 1.64077e-12 -7.31528e-14 6.13248e-11 -1.39055e-12 -8.26944e-14 1.44669e-10 5.45331e-13 -3.81667e-13 2.49849e-10 9.44625e-13 -6.70302e-13 1.44664e-10 5.46658e-13 -3.72125e-13 -7.73091 5.47488 -0.417314 1.44669e-10 5.4467e-13 -3.91208e-13 -2.90554 0.965183 -0.102902 1.44665e-10 5.45167e-13 -3.86437e-13 -10.2786 0.731801 -0.0259123 1.44676e-10 5.48248e-13 -3.97569e-13 -2.22167 -0.733487 0.20892 -2.03217e-16 0.0 -3.88251e-19 -0.803415 -1.9234 -0.00371734 -0.00881872 -2.07862 -0.0725735 -0.452059 3.99778 0.131436 2.03217e-16 0.0 3.88251e-19 -1.71759 -6.77988 0.164469 -0.00322849 6.71845 -0.0840746 0.482111 0.0572853 -0.055897
-180.092 82.9385 -14.2073 -46.6261 82.2475 -43.2631 -0.0195738 6.3098 -0.865123 0.125272 -0.0662851 -0.151563 -0.844155 2.80063 1.26007 -0.898258 -4.75356 2.48937 -0.0 0.0 0.0 -0.0 0.0 0.0 -6.49789e-14 9.95899e-13 -1.58282e-14 18.9569 14.4522 -1.63144 -6.1901 -3.36055 8.99923 5.81883e-06 -0.0589403 -0.00828351 1.45826e-09 2.37008e-10 1.63718e-10 2.51883e-09 4.09857e-10 2.80411e-10 1.45826e-09 2.37008e-10 1.63706e-10 7.73091 5.47488 0.417314 1.45826e-09 2.37008e-10 1.63718e-10 2.90554 0.965183 0.102902 1.45826e-09 2.37007e-10 1.63718e-10 10.2786 0.731801 0.0259123 1.45825e-09 2.3701e-10 1.63728e-10 2.22167 -0.733487 -0.20892 -6.51548e-14 9.95899e-13 -1.62211e-14 -21.6103 6.34201 2.83471 8.55765 -5.44663 -11.2479 -0.00103522 -0.713989 0.100317 9.58017e-10 -4.68613e-10 -1.57542e-10 1.65686e-09 -8.08981e-10 -2.6939e-10 9.58013e-10 -4.68613e-10 -1.57533e-10 -7.73091 5.47488 -0.417314 9.58017e-10 -4.68615e-10 -1.57548e-10 -2.90554 0.965183 -0.102902 9.58014e-10 -4.68615e-10 -1.57547e-10 -10.2786 0.731801 -0.0259123 9.58026e-10 -4.68612e-10 -1.57557e-10 -2.22167 -0.733487 0.20892 -2.03217e-16 0.0 -3.88251e-19 2.301 -0.697128 1.32358 0.0224706 1.32932 0.0744509 -1.27543 -1.41322 -7.96176 2.03217e-16 0.0 3.88251e-19 0.821688 -12.254 1.59095 0.0153248 15.3808 -0.211887 0.562353 -3.15267 0.630754
-180.04 82.9374 -14.204 -46.4576 82.2208 -43.0831 1.91191 12.9798 -1.76691 0.740743 -0.135869 -0.22822 -1.87301 5.75388 2.60558 -1.39297 -9.74619 5.18549 -0.0 0.0 0.0 -0.0 0.0 0.0 -1.51899e-13 2.10357e-12 -3.67006e-14 40.0158 29.6944 -3.74243 -11.6 -6.63696 18.6106 -7.58653e-06 -0.124099 -0.017441 2.96089e-09 5.11152e-10 3.33525e-10 5.11433e-09 8.83935e-10 5.70925e-10 2.9609e-09 5.11152e-10 3.33518e-10 7.73091 5.47488 0.417314 2.96089e-09 5.11151e-10 3.33525e-10 2.90554 0.965183 0.102902 2.9609e-09 5.11151e-10 3.33525e-10 10.2786 0.731801 0.0259123 2.96089e-09 5.11151e-10 3.33536e-10 2.22167 -0.733487 -0.20892 -1.52053e-13 2.10357e-12 -3.70361e-14 -45.1554 12.9939 5.95218 15.3075 -10.4994 -23.4464 0.000588482 -1.46644 0.20609 1.88603e-09 -1.04288e-09 -3.74754e-10 3.26246e-09 -1.80054e-09 -6.41538e-10 1.88603e-09 -1.04288e-09 -3.74747e-10 -7.73091 5.47488 -0.417314 1.88603e-09 -1.04289e-09 -3.74758e-10 -2.90554 0.965183 -0.102902 1.88603e-09 -1.04289e-09 -3.74759e-10 -10.2786 0.731801 -0.0259123 1.88604e-09 -1.04288e-09 -3.74768e-10 -2.22167 -0.733487 0.20892 -2.03217e-16 0.0 -3.88251e-19 5.52199 0.599909 2.72738 0.0364802 4.92966 0.230591 -3.79403 -6.8645 -16.6347 2.03217e-16 0.0 3.88251e-19 3.81815 -18.0238 3.18197 0.0813191 24.537 -0.364889 0.730296 -6.53695 1.35963
-180.0 82.9316 -14.2062 -46.1057 82.2042 -42.6811 3.82079 18.9202 -2.63136 1.28951 -0.199163 -0.296361 -2.90512 8.38554 3.81656 -1.42659 -14.1513 7.67671 -0.0 0.0 0.0 -0.0 0.0 0.0 -2.24555e-13 2.98758e-12 -4.78823e-14 60.1123 43.1886 -6.50686 -15.5007 -9.08848 27.3219 -3.36714e-05 -0.176821 -0.0248506 4.08537e-09 7.09815e-10 4.91923e-10 7.05673e-09 1.22748e-09 8.42583e-10 4.08538e-09 7.09816e-10 4.9192e-10 7.73091 5.47488 0.417314 4.08537e-09 7.09813e-10 4.91923e-10 2.90554 0.965183 0.102902 4.08538e-09 7.09813e-10 4.91923e-10 10.2786 0.731801 0.0259123 4.08537e-09 7.09812e-10 4.91935e-10 2.22167 -0.733487 -0.20892 -2.24689e-13 2.98758e-12 -4.81665e-14 -66.7962 18.8344 8.93402 19.518 -13.8153 -34.7305 0.00439933 -2.14194 0.301137 2.58471e-09 -1.40693e-09 -4.71862e-10 4.47088e-09 -2.42883e-09 -8.06831e-10 2.58471e-09 -1.40693e-09 -4.71855e-10 -7.73091 5.47488 -0.417314 2.58471e-09 -1.40694e-09 -4.71863e-10 -2.90554 0.965183 -0.102902 2.58471e-09 -1.40694e-09 -4.71867e-10 -10.2786 0.731801 -0.0259123 2.58472e-09 -1.40693e-09 -4.71875e-10 -2.22167 -0.733487 0.20892 -2.03217e-16 0.0 -3.88251e-19 8.33948 1.75062 3.97974 0.0322469 8.14504 0.372098 -7.43321 -11.1883 -24.6387 2.03217e-16 0.0 3.88251e-19 6.78384 -23.1457 4.71795 0.189825 32.7047 -0.52991 0.956316 -9.56726 2.02943
-179.962 82.9294 -14.2047 -46.2894 82.2058 -42.8479 5.26193 23.0518 -3.28254 1.67188 -0.246733 -0.343214 -3.68029 10.2289 4.65657 -1.21753 -17.1931 9.4563 -0.0 0.0 0.0 -0.0 0.0 0.0 -2.61548e-13 3.31245e-12 -3.4837e-14 75.3964 52.4609 -9.50445 -17.7552 -10.4259 33.4734 -4.82977e-05 -0.19845 -0.0278904 4.26446e-09 7.19775e-10 6.21798e-10 7.36638e-09 1.24471e-09 1.0671e-09 4.26446e-09 7.19776e-10 6.21798e-10 7.73091 5.47488 0.417314 4.26446e-09 7.19773e-10 6.21798e-10 2.90554 0.965183 0.102902 4.26447e-09 7.19773e-10 6.21799e-10 10.2786 0.731801 0.0259123 4.26446e-09 7.19771e-10 6.21811e-10 2.22167 -0.733487 -0.20892 -2.61671e-13 3.31245e-12 -3.50855e-14 -82.2559 22.8297 11.1668 21.6245 -15.2035 -42.7866 0.00845905 -2.62508 0.369192 2.71006e-09 -1.24543e-09 -2.68709e-10 4.68634e-09 -2.14893e-09 -4.54984e-10 2.71005e-09 -1.24543e-09 -2.68703e-10 -7.73091 5.47488 -0.417314 2.71006e-09 -1.24544e-09 -2.68709e-10 -2.90554 0.965183 -0.102902 2.71005e-09 -1.24544e-09 -2.68714e-10 -10.2786 0.731801 -0.0259123 2.71007e-09 -1.24544e-09 -2.68722e-10 -2.22167 -0.733487 0.20892 -2.03217e-16 0.0 -3.88251e-19 10.2689 2.54089 4.85057 0.019702 10.3982 0.472967 -10.7106 -13.7522 -30.4167 2.03217e-16 0.0 3.88251e-19 9.02899 -26.6985 5.87985 0.301552 38.4018 -0.670788 1.16491 -11.7176 2.52786
-179.929 82.9251 -14.2106 -46.2897 82.2178 -42.8157 5.83953 24.6595 -3.54031 1.82249 -0.27186 -0.359578 -3.97465 10.9834 4.95209 -1.09664 -18.4065 10.095 -0.0 0.0 0.0 -0.0 0.0 0.0 -2.47457e-13 2.76639e-12 2.28218e-14 81.8162 56.0023 -11.0813 -18.5398 -10.8451 35.8823 -2.74422e-05 -0.165731 -0.023292 2.81923e-09 3.96293e-10 7.45037e-10 4.87081e-09 6.85298e-10 1.28403e-09 2.81924e-09 3.96293e-10 7.45037e-10 7.73091 5.47488 0.417314 2.81923e-09 3.9629e-10 7.45036e-10 2.90554 0.965183 0.102902 2.81924e-09 3.9629e-10 7.45038e-10 10.2786 0.731801 0.0259123 2.81923e-09 3.96288e-10 7.4505e-10 2.22167 -0.733487 -0.20892 -2.47583e-13 2.7664e-12 2.25873e-14 -88.3659 24.3733 12.0468 22.3113 -15.5148 -45.9788 0.0105403 -2.83873 0.39931 1.87941e-09 -1.15354e-10 5.23231e-10 3.24562e-09 -1.95118e-10 9.11394e-10 1.8794e-09 -1.15359e-10 5.2324e-10 -7.73091 5.47488 -0.417314 1.8794e-09 -1.15361e-10 5.23231e-10 -2.90554 0.965183 -0.102902 1.8794e-09 -1.15363e-10 5.23227e-10 -10.2786 0.731801 -0.0259123 1.87942e-09 -1.1536e-10 5.2322e-10 -2.22167 -0.733487 0.20892 -2.03217e-16 0.0 -3.88251e-19 11.0072 2.82526 5.18748 0.0125286 11.3075 0.51357 -12.152 -14.6336 -32.7257 2.03217e-16 0.0 3.88251e-19 9.94228 -28.0918 6.36049 0.355504 40.6392 -0.734853 1.2771 -12.6421 2.77696
-179.892 82.9215 -14.2138 -46.2734 82.2163 -42.7725 5.7481 24.4682 -3.48914 1.80755 -0.280978 -0.354196 -3.89775 10.9631 4.85161 -1.13987 -18.3354 9.87737 -0.0 0.0 0.0 -0.0 0.0 0.0 -1.96932e-13 1.60246e-12 1.11838e-13 81.0147 55.5269 -10.8352 -18.4441 -10.7898 35.5883 -4.95971e-08 -0.0947068 -0.0133102 2.28103e-10 -1.62066e-10 8.6195e-10 3.96233e-10 -2.80294e-10 1.49275e-09 2.28107e-10 -1.62067e-10 8.61946e-10 7.73091 5.47488 0.417314 2.28105e-10 -1.62069e-10 8.61946e-10 2.90554 0.965183 0.102902 2.28111e-10 -1.62069e-10 8.6195e-10 10.2786 0.731801 0.0259123 2.28101e-10 -1.6207e-10 8.61961e-10 2.22167 -0.733487 -0.20892 -1.97072e-13 1.60245e-12 1.11602e-13 -87.6233 24.2069 11.8697 22.2524 -15.5078 -45.6657 0.0106286 -2.85991 0.402291 3.73202e-10 1.69547e-09 1.72771e-09 6.34579e-10 2.93518e-09 2.9886e-09 3.73192e-10 1.69547e-09 1.72773e-09 -7.73091 5.47488 -0.417314 3.732e-10 1.69547e-09 1.72771e-09 -2.90554 0.965183 -0.102902 3.73193e-10 1.69547e-09 1.72771e-09 -10.2786 0.731801 -0.0259123 3.73208e-10 1.69547e-09 1.72771e-09 -2.22167 -0.733487 0.20892 -2.03217e-16 0.0 -3.88251e-19 10.9067 2.7498 5.14193 0.0132866 11.2568 0.510061 -11.9941 -14.5437 -32.4713 2.03217e-16 0.0 3.88251e-19 9.82121 -27.9528 6.30718 0.349312 40.4058 -0.729381 1.30097 -12.6919 2.84208
-179.857 82.9181 -14.217 -46.2709 82.2168 -42.7454 5.39564 23.5623 -3.32099 1.72472 -0.28438 -0.341208 -3.67496 10.6269 4.59391 -1.24185 -17.7416 9.32133 -0.0 0.0 0.0 -0.0 0.0 0.0 -1.33686e-13 3.32343e-13 1.96284e-13 77.3497 53.4295 -9.88434 -17.9991 -10.5478 34.2232 3.45577e-06 -0.0256696 -0.00360762 -2.34016e-09 -7.03559e-10 9.23062e-10 -4.03894e-09 -1.2167e-09 1.60475e-09 -2.34016e-09 -7.03562e-10 9.23055e-10 7.73091 5.47488 0.417314 -2.34016e-09 -7.03562e-10 9.23057e-10 2.90554 0.965183 0.102902 -2.34015e-09 -7.03562e-10 9.23062e-10 10.2786 0.731801 0.0259123 -2.34016e-09 -7.03562e-10 9.23072e-10 2.22167 -0.733487 -0.20892 -1.33838e-13 3.32332e-13 1.9604e-13 -84.1426 23.3624 11.2737 21.8974 -15.3757 -43.9497 0.00987468 -2.80442 0.394461 -1.15791e-09 3.40611e-09 2.82774e-09 -2.01891e-09 5.89216e-09 4.88528e-09 -1.15792e-09 3.40611e-09 2.82775e-09 -7.73091 5.47488 -0.417314 -1.15791e-09 3.40611e-09 2.82773e-09 -2.90554 0.965183 -0.102902 -1.15792e-09 3.40611e-09 2.82774e-09 -10.2786 0.731801 -0.0259123 -1.1579e-09 3.40611e-09 2.82773e-09 -2.22167 -0.733487 0.20892 -2.03217e-16 0.0 -3.88251e-19 10.4725 2.53926 4.93818 0.0172323 10.8172 0.488888 -11.1973 -14.0673 -31.1906 2.03217e-16 0.0 3.88251e-19 9.28716 -27.1977 6.03793 0.31903 39.1861 -0.695992 1.28329 -12.3882 2.82072
